<?xml version="1.0" encoding="UTF-8" standalone="no"?>
<!-- Created with Inkscape (http://www.inkscape.org/) -->

<svg
   xmlns:dc="http://purl.org/dc/elements/1.1/"
   xmlns:cc="http://creativecommons.org/ns#"
   xmlns:rdf="http://www.w3.org/1999/02/22-rdf-syntax-ns#"
   xmlns:svg="http://www.w3.org/2000/svg"
   xmlns="http://www.w3.org/2000/svg"
   xmlns:sodipodi="http://sodipodi.sourceforge.net/DTD/sodipodi-0.dtd"
   xmlns:inkscape="http://www.inkscape.org/namespaces/inkscape"
   width="100"
   height="38"
   viewBox="0 0 100 38.000004"
   id="svg2"
   version="1.1"
   inkscape:version="0.92.4 (5da689c313, 2019-01-14)"
   sodipodi:docname="Discovery logo.svg">
  <title
     id="title4161">Bic logo</title>
  <defs
     id="defs4">
    <pattern
       y="0"
       x="0"
       height="6"
       width="6"
       patternUnits="userSpaceOnUse"
       id="EMFhbasepattern" />
    <pattern
       y="0"
       x="0"
       height="6"
       width="6"
       patternUnits="userSpaceOnUse"
       id="EMFhbasepattern-6" />
  </defs>
  <sodipodi:namedview
     id="base"
     pagecolor="#ffffff"
     bordercolor="#666666"
     borderopacity="1.0"
     inkscape:pageopacity="0.0"
     inkscape:pageshadow="2"
     inkscape:zoom="1"
     inkscape:cx="67.324889"
     inkscape:cy="17.742447"
     inkscape:document-units="px"
     inkscape:current-layer="layer1"
     showgrid="false"
     units="px"
     inkscape:showpageshadow="false"
     inkscape:window-width="1366"
     inkscape:window-height="705"
     inkscape:window-x="-8"
     inkscape:window-y="-8"
     inkscape:window-maximized="1"
     objecttolerance="1"
     gridtolerance="1" />
  <metadata
     id="metadata7">
    <rdf:RDF>
      <cc:Work
         rdf:about="">
        <dc:format>image/svg+xml</dc:format>
        <dc:type
           rdf:resource="http://purl.org/dc/dcmitype/StillImage" />
        <dc:title>Bic logo</dc:title>
        <cc:license
           rdf:resource="http://scripts.sil.org/OFL" />
      </cc:Work>
      <cc:License
         rdf:about="http://scripts.sil.org/OFL">
        <cc:permits
           rdf:resource="http://scripts.sil.org/pub/OFL/Reproduction" />
        <cc:permits
           rdf:resource="http://scripts.sil.org/pub/OFL/Distribution" />
        <cc:permits
           rdf:resource="http://scripts.sil.org/pub/OFL/Embedding" />
        <cc:permits
           rdf:resource="http://scripts.sil.org/pub/OFL/DerivativeWorks" />
        <cc:requires
           rdf:resource="http://scripts.sil.org/pub/OFL/Notice" />
        <cc:requires
           rdf:resource="http://scripts.sil.org/pub/OFL/Attribution" />
        <cc:requires
           rdf:resource="http://scripts.sil.org/pub/OFL/ShareAlike" />
        <cc:requires
           rdf:resource="http://scripts.sil.org/pub/OFL/DerivativeRenaming" />
        <cc:requires
           rdf:resource="http://scripts.sil.org/pub/OFL/BundlingWhenSelling" />
      </cc:License>
    </rdf:RDF>
  </metadata>
  <g
     inkscape:label="Capa 1"
     inkscape:groupmode="layer"
     id="layer1"
     transform="translate(0,-1014.3622)">
    <g
       id="g54"
       transform="matrix(0.75171521,0,0,0.75171521,-29.362155,1011.2154)">
      <path
         d="m 49.764,53.84 c 2.464,0 92.747,0 95.303,0 11.685,0 25.834,-24.1 25.925,-37.701 C 171.037,9.473 167.25,5.002 159.034,5.002 H 67.656 c -13.51,0 -27.568,26.655 -27.112,38.341 0.253,6.485 4.29,10.497 9.22,10.497 z"
         id="path4"
         inkscape:connector-curvature="0" />
      <path
         d="m 155.747,6.827 c 0,0 -82.614,-0.037 -87.452,0 C 56.519,6.919 42.39,30.933 42.37,43.434 c -0.012,6.856 5.203,8.58 7.577,8.58 0,0 85.17,0 94.208,0 13.967,0 25.972,-28.468 25.013,-36.332 -0.004,-0.027 -0.086,-9.037 -9.951,-8.854 h -3.47 z"
         id="path6"
         inkscape:connector-curvature="0"
         style="fill:#fdb913" />
      <path
         d="m 91.573,37.956 c -4.534,6.796 -10.178,5.888 -12.872,5.934 -2.647,0.045 -28.025,0 -28.025,0 L 65.739,14.039 c 0,0 23.826,0 26.017,0 2.191,0 7.663,2.064 7.303,6.025 0,0 -0.091,7.119 -10.863,8.945 0.365,0.275 7.2,3.219 3.377,8.947 z m -19.079,1.027 c 3.834,0 6.755,-3.354 6.801,-5.865 0.046,-2.511 -1.597,-2.792 -3.012,-2.792 -1.004,0 -7.205,0 -7.205,0 l -6.216,8.666 z m 8.901,-13.67 c 2.921,0 5.066,-2.237 5.431,-3.972 0.365,-1.735 -2.282,-2.441 -3.286,-2.441 -1.004,0 -6.267,0 -6.267,0 l -4.607,6.424 z"
         id="path8"
         inkscape:connector-curvature="0" />
      <polygon
         points="114.851,21.89 107.092,43.89 93.216,43.89 106.544,21.89 "
         id="polygon10" />
      <path
         d="m 115.018,13.484 c -2.025,-0.331 -4.58,0.715 -5.594,2.447 -1.012,1.732 0.173,3.907 2.199,4.238 2.025,0.33 4.717,-0.578 5.73,-2.312 1.014,-1.731 -0.309,-4.043 -2.335,-4.373 z"
         id="path12"
         inkscape:connector-curvature="0" />
      <path
         d="M 113.366,16.804"
         id="path14"
         inkscape:connector-curvature="0" />
      <path
         d="m 148.9,33.483 c -2.099,3.013 -7.211,5.934 -11.593,5.934 -4.382,0 -6.116,-1.278 -6.572,-5.478 -0.457,-4.199 5.751,-15.154 12.963,-15.154 7.211,0 3.194,8.398 3.194,8.398 h 5.842 L 165.15,14.221 h -12.416 l -1.552,2.647 c 0,0 -2.556,-3.561 -9.311,-3.561 -6.755,0 -22.472,3.168 -23.826,19.079 -0.365,4.29 2.556,12.323 15.153,12.323 12.597,0 18.349,-6.572 19.444,-8.033 z"
         id="path16"
         inkscape:connector-curvature="0" />
      <g
         id="g48" />
      <g
         id="g52" />
    </g>
  </g>
</svg>
